<svg width="1440" height="320" viewBox="0 0 1440 320" fill="none" xmlns="http://www.w3.org/2000/svg">
<g clip-path="url(#clip0_21_39)">
<path d="M-79 77.1331L-25.6667 114.485C27.6667 152.237 134.333 226.34 241 216.025C347.667 205.31 454.333 109.177 561 103.87C667.667 98.1622 774.333 184.281 881 200.003C987.667 216.326 1094.33 162.251 1201 135.914C1307.67 109.177 1414.33 109.177 1467.67 109.177H1521V-19H1467.67C1414.33 -19 1307.67 -19 1201 -19C1094.33 -19 987.667 -19 881 -19C774.333 -19 667.667 -19 561 -19C454.333 -19 347.667 -19 241 -19C134.333 -19 27.6667 -19 -25.6667 -19H-79V77.1331Z" fill="#181618"/>
</g>
<defs>
<clipPath id="clip0_21_39">
<rect width="1440" height="320" fill="white"/>
</clipPath>
</defs>
</svg>
